<?xml version="1.0" encoding="utf-8" standalone="no"?>
<!DOCTYPE svg PUBLIC "-//W3C//DTD SVG 1.1//EN"
  "http://www.w3.org/Graphics/SVG/1.1/DTD/svg11.dtd">
<svg xmlns:xlink="http://www.w3.org/1999/xlink" width="720pt" height="720pt" viewBox="0 0 720 720" xmlns="http://www.w3.org/2000/svg" version="1.1">
 <metadata>
  <rdf:RDF xmlns:dc="http://purl.org/dc/elements/1.1/" xmlns:cc="http://creativecommons.org/ns#" xmlns:rdf="http://www.w3.org/1999/02/22-rdf-syntax-ns#">
   <cc:Work>
    <dc:type rdf:resource="http://purl.org/dc/dcmitype/StillImage"/>
    <dc:date>2022-11-15T13:40:44.601746</dc:date>
    <dc:format>image/svg+xml</dc:format>
    <dc:creator>
     <cc:Agent>
      <dc:title>Matplotlib v3.5.2, https://matplotlib.org/</dc:title>
     </cc:Agent>
    </dc:creator>
   </cc:Work>
  </rdf:RDF>
 </metadata>
 <defs>
  <style type="text/css">*{stroke-linejoin: round; stroke-linecap: butt}</style>
 </defs>
 <g id="figure_1">
  <g id="patch_1">
   <path d="M 0 720 
L 720 720 
L 720 0 
L 0 0 
z
" style="fill: #ffffff"/>
  </g>
  <g id="patch_2">
   <path d="M 91.8 640.8 
L 646.2 640.8 
L 646.2 86.4 
L 91.8 86.4 
z
" style="fill: #ffffff"/>
  </g>
  <g id="pane3d_1">
   <g id="patch_3">
    <path d="M 133.661023 504.102727 
L 316.742009 350.640614 
L 314.197008 129.320814 
L 122.354653 269.318627 
" style="fill: #f2f2f2; opacity: 0.5; stroke: #f2f2f2; stroke-linejoin: miter"/>
   </g>
  </g>
  <g id="pane3d_2">
   <g id="patch_4">
    <path d="M 316.742009 350.640614 
L 610.521668 436.030763 
L 621.005628 207.087856 
L 314.197008 129.320814 
" style="fill: #e6e6e6; opacity: 0.5; stroke: #e6e6e6; stroke-linejoin: miter"/>
   </g>
  </g>
  <g id="pane3d_3">
   <g id="patch_5">
    <path d="M 133.661023 504.102727 
L 445.08181 605.812756 
L 610.521668 436.030763 
L 316.742009 350.640614 
" style="fill: #ececec; opacity: 0.5; stroke: #ececec; stroke-linejoin: miter"/>
   </g>
  </g>
  <g id="axis3d_1">
   <g id="line2d_1">
    <path d="M 133.661023 504.102727 
L 445.08181 605.812756 
" style="fill: none; stroke: #000000; stroke-width: 0.8; stroke-linecap: square"/>
   </g>
   <g id="text_1">
    <!-- number of points -->
    <g transform="translate(227.438647 578.051589)rotate(-341.912962)scale(0.1 -0.1)">
     <defs>
      <path id="DejaVuSans-6e" d="M 3513 2113 
L 3513 0 
L 2938 0 
L 2938 2094 
Q 2938 2591 2744 2837 
Q 2550 3084 2163 3084 
Q 1697 3084 1428 2787 
Q 1159 2491 1159 1978 
L 1159 0 
L 581 0 
L 581 3500 
L 1159 3500 
L 1159 2956 
Q 1366 3272 1645 3428 
Q 1925 3584 2291 3584 
Q 2894 3584 3203 3211 
Q 3513 2838 3513 2113 
z
" transform="scale(0.015625)"/>
      <path id="DejaVuSans-75" d="M 544 1381 
L 544 3500 
L 1119 3500 
L 1119 1403 
Q 1119 906 1312 657 
Q 1506 409 1894 409 
Q 2359 409 2629 706 
Q 2900 1003 2900 1516 
L 2900 3500 
L 3475 3500 
L 3475 0 
L 2900 0 
L 2900 538 
Q 2691 219 2414 64 
Q 2138 -91 1772 -91 
Q 1169 -91 856 284 
Q 544 659 544 1381 
z
M 1991 3584 
L 1991 3584 
z
" transform="scale(0.015625)"/>
      <path id="DejaVuSans-6d" d="M 3328 2828 
Q 3544 3216 3844 3400 
Q 4144 3584 4550 3584 
Q 5097 3584 5394 3201 
Q 5691 2819 5691 2113 
L 5691 0 
L 5113 0 
L 5113 2094 
Q 5113 2597 4934 2840 
Q 4756 3084 4391 3084 
Q 3944 3084 3684 2787 
Q 3425 2491 3425 1978 
L 3425 0 
L 2847 0 
L 2847 2094 
Q 2847 2600 2669 2842 
Q 2491 3084 2119 3084 
Q 1678 3084 1418 2786 
Q 1159 2488 1159 1978 
L 1159 0 
L 581 0 
L 581 3500 
L 1159 3500 
L 1159 2956 
Q 1356 3278 1631 3431 
Q 1906 3584 2284 3584 
Q 2666 3584 2933 3390 
Q 3200 3197 3328 2828 
z
" transform="scale(0.015625)"/>
      <path id="DejaVuSans-62" d="M 3116 1747 
Q 3116 2381 2855 2742 
Q 2594 3103 2138 3103 
Q 1681 3103 1420 2742 
Q 1159 2381 1159 1747 
Q 1159 1113 1420 752 
Q 1681 391 2138 391 
Q 2594 391 2855 752 
Q 3116 1113 3116 1747 
z
M 1159 2969 
Q 1341 3281 1617 3432 
Q 1894 3584 2278 3584 
Q 2916 3584 3314 3078 
Q 3713 2572 3713 1747 
Q 3713 922 3314 415 
Q 2916 -91 2278 -91 
Q 1894 -91 1617 61 
Q 1341 213 1159 525 
L 1159 0 
L 581 0 
L 581 4863 
L 1159 4863 
L 1159 2969 
z
" transform="scale(0.015625)"/>
      <path id="DejaVuSans-65" d="M 3597 1894 
L 3597 1613 
L 953 1613 
Q 991 1019 1311 708 
Q 1631 397 2203 397 
Q 2534 397 2845 478 
Q 3156 559 3463 722 
L 3463 178 
Q 3153 47 2828 -22 
Q 2503 -91 2169 -91 
Q 1331 -91 842 396 
Q 353 884 353 1716 
Q 353 2575 817 3079 
Q 1281 3584 2069 3584 
Q 2775 3584 3186 3129 
Q 3597 2675 3597 1894 
z
M 3022 2063 
Q 3016 2534 2758 2815 
Q 2500 3097 2075 3097 
Q 1594 3097 1305 2825 
Q 1016 2553 972 2059 
L 3022 2063 
z
" transform="scale(0.015625)"/>
      <path id="DejaVuSans-72" d="M 2631 2963 
Q 2534 3019 2420 3045 
Q 2306 3072 2169 3072 
Q 1681 3072 1420 2755 
Q 1159 2438 1159 1844 
L 1159 0 
L 581 0 
L 581 3500 
L 1159 3500 
L 1159 2956 
Q 1341 3275 1631 3429 
Q 1922 3584 2338 3584 
Q 2397 3584 2469 3576 
Q 2541 3569 2628 3553 
L 2631 2963 
z
" transform="scale(0.015625)"/>
      <path id="DejaVuSans-20" transform="scale(0.015625)"/>
      <path id="DejaVuSans-6f" d="M 1959 3097 
Q 1497 3097 1228 2736 
Q 959 2375 959 1747 
Q 959 1119 1226 758 
Q 1494 397 1959 397 
Q 2419 397 2687 759 
Q 2956 1122 2956 1747 
Q 2956 2369 2687 2733 
Q 2419 3097 1959 3097 
z
M 1959 3584 
Q 2709 3584 3137 3096 
Q 3566 2609 3566 1747 
Q 3566 888 3137 398 
Q 2709 -91 1959 -91 
Q 1206 -91 779 398 
Q 353 888 353 1747 
Q 353 2609 779 3096 
Q 1206 3584 1959 3584 
z
" transform="scale(0.015625)"/>
      <path id="DejaVuSans-66" d="M 2375 4863 
L 2375 4384 
L 1825 4384 
Q 1516 4384 1395 4259 
Q 1275 4134 1275 3809 
L 1275 3500 
L 2222 3500 
L 2222 3053 
L 1275 3053 
L 1275 0 
L 697 0 
L 697 3053 
L 147 3053 
L 147 3500 
L 697 3500 
L 697 3744 
Q 697 4328 969 4595 
Q 1241 4863 1831 4863 
L 2375 4863 
z
" transform="scale(0.015625)"/>
      <path id="DejaVuSans-70" d="M 1159 525 
L 1159 -1331 
L 581 -1331 
L 581 3500 
L 1159 3500 
L 1159 2969 
Q 1341 3281 1617 3432 
Q 1894 3584 2278 3584 
Q 2916 3584 3314 3078 
Q 3713 2572 3713 1747 
Q 3713 922 3314 415 
Q 2916 -91 2278 -91 
Q 1894 -91 1617 61 
Q 1341 213 1159 525 
z
M 3116 1747 
Q 3116 2381 2855 2742 
Q 2594 3103 2138 3103 
Q 1681 3103 1420 2742 
Q 1159 2381 1159 1747 
Q 1159 1113 1420 752 
Q 1681 391 2138 391 
Q 2594 391 2855 752 
Q 3116 1113 3116 1747 
z
" transform="scale(0.015625)"/>
      <path id="DejaVuSans-69" d="M 603 3500 
L 1178 3500 
L 1178 0 
L 603 0 
L 603 3500 
z
M 603 4863 
L 1178 4863 
L 1178 4134 
L 603 4134 
L 603 4863 
z
" transform="scale(0.015625)"/>
      <path id="DejaVuSans-74" d="M 1172 4494 
L 1172 3500 
L 2356 3500 
L 2356 3053 
L 1172 3053 
L 1172 1153 
Q 1172 725 1289 603 
Q 1406 481 1766 481 
L 2356 481 
L 2356 0 
L 1766 0 
Q 1100 0 847 248 
Q 594 497 594 1153 
L 594 3053 
L 172 3053 
L 172 3500 
L 594 3500 
L 594 4494 
L 1172 4494 
z
" transform="scale(0.015625)"/>
      <path id="DejaVuSans-73" d="M 2834 3397 
L 2834 2853 
Q 2591 2978 2328 3040 
Q 2066 3103 1784 3103 
Q 1356 3103 1142 2972 
Q 928 2841 928 2578 
Q 928 2378 1081 2264 
Q 1234 2150 1697 2047 
L 1894 2003 
Q 2506 1872 2764 1633 
Q 3022 1394 3022 966 
Q 3022 478 2636 193 
Q 2250 -91 1575 -91 
Q 1294 -91 989 -36 
Q 684 19 347 128 
L 347 722 
Q 666 556 975 473 
Q 1284 391 1588 391 
Q 1994 391 2212 530 
Q 2431 669 2431 922 
Q 2431 1156 2273 1281 
Q 2116 1406 1581 1522 
L 1381 1569 
Q 847 1681 609 1914 
Q 372 2147 372 2553 
Q 372 3047 722 3315 
Q 1072 3584 1716 3584 
Q 2034 3584 2315 3537 
Q 2597 3491 2834 3397 
z
" transform="scale(0.015625)"/>
     </defs>
     <use xlink:href="#DejaVuSans-6e"/>
     <use xlink:href="#DejaVuSans-75" x="63.378906"/>
     <use xlink:href="#DejaVuSans-6d" x="126.757812"/>
     <use xlink:href="#DejaVuSans-62" x="224.169922"/>
     <use xlink:href="#DejaVuSans-65" x="287.646484"/>
     <use xlink:href="#DejaVuSans-72" x="349.169922"/>
     <use xlink:href="#DejaVuSans-20" x="390.283203"/>
     <use xlink:href="#DejaVuSans-6f" x="422.070312"/>
     <use xlink:href="#DejaVuSans-66" x="483.251953"/>
     <use xlink:href="#DejaVuSans-20" x="518.457031"/>
     <use xlink:href="#DejaVuSans-70" x="550.244141"/>
     <use xlink:href="#DejaVuSans-6f" x="613.720703"/>
     <use xlink:href="#DejaVuSans-69" x="674.902344"/>
     <use xlink:href="#DejaVuSans-6e" x="702.685547"/>
     <use xlink:href="#DejaVuSans-74" x="766.064453"/>
     <use xlink:href="#DejaVuSans-73" x="805.273438"/>
    </g>
   </g>
   <g id="Line3DCollection_1">
    <path d="M 181.502397 519.72772 
L 362.042206 363.807593 
L 361.421832 141.290931 
" style="fill: none; stroke: #b0b0b0; stroke-width: 0.8"/>
    <path d="M 240.344847 538.945664 
L 417.674808 379.977794 
L 419.460095 156.001938 
" style="fill: none; stroke: #b0b0b0; stroke-width: 0.8"/>
    <path d="M 300.393787 558.557647 
L 474.352408 396.451735 
L 478.636267 171.001373 
" style="fill: none; stroke: #b0b0b0; stroke-width: 0.8"/>
    <path d="M 361.686707 578.575915 
L 532.104729 413.238055 
L 538.984143 186.297801 
" style="fill: none; stroke: #b0b0b0; stroke-width: 0.8"/>
    <path d="M 424.262668 599.013224 
L 590.962632 430.345723 
L 600.538873 201.90013 
" style="fill: none; stroke: #b0b0b0; stroke-width: 0.8"/>
   </g>
   <g id="xtick_1">
    <g id="line2d_2">
     <path d="M 183.075169 518.369422 
L 178.350071 522.450173 
" style="fill: none; stroke: #000000; stroke-width: 0.8; stroke-linecap: square"/>
    </g>
    <g id="text_2">
     <!-- 2000 -->
     <g transform="translate(161.276929 543.102402)scale(0.1 -0.1)">
      <defs>
       <path id="DejaVuSans-32" d="M 1228 531 
L 3431 531 
L 3431 0 
L 469 0 
L 469 531 
Q 828 903 1448 1529 
Q 2069 2156 2228 2338 
Q 2531 2678 2651 2914 
Q 2772 3150 2772 3378 
Q 2772 3750 2511 3984 
Q 2250 4219 1831 4219 
Q 1534 4219 1204 4116 
Q 875 4013 500 3803 
L 500 4441 
Q 881 4594 1212 4672 
Q 1544 4750 1819 4750 
Q 2544 4750 2975 4387 
Q 3406 4025 3406 3419 
Q 3406 3131 3298 2873 
Q 3191 2616 2906 2266 
Q 2828 2175 2409 1742 
Q 1991 1309 1228 531 
z
" transform="scale(0.015625)"/>
       <path id="DejaVuSans-30" d="M 2034 4250 
Q 1547 4250 1301 3770 
Q 1056 3291 1056 2328 
Q 1056 1369 1301 889 
Q 1547 409 2034 409 
Q 2525 409 2770 889 
Q 3016 1369 3016 2328 
Q 3016 3291 2770 3770 
Q 2525 4250 2034 4250 
z
M 2034 4750 
Q 2819 4750 3233 4129 
Q 3647 3509 3647 2328 
Q 3647 1150 3233 529 
Q 2819 -91 2034 -91 
Q 1250 -91 836 529 
Q 422 1150 422 2328 
Q 422 3509 836 4129 
Q 1250 4750 2034 4750 
z
" transform="scale(0.015625)"/>
      </defs>
      <use xlink:href="#DejaVuSans-32"/>
      <use xlink:href="#DejaVuSans-30" x="63.623047"/>
      <use xlink:href="#DejaVuSans-30" x="127.246094"/>
      <use xlink:href="#DejaVuSans-30" x="190.869141"/>
     </g>
    </g>
   </g>
   <g id="xtick_2">
    <g id="line2d_3">
     <path d="M 241.890936 537.559669 
L 237.245934 541.723692 
" style="fill: none; stroke: #000000; stroke-width: 0.8; stroke-linecap: square"/>
    </g>
    <g id="text_3">
     <!-- 4000 -->
     <g transform="translate(220.149515 562.515476)scale(0.1 -0.1)">
      <defs>
       <path id="DejaVuSans-34" d="M 2419 4116 
L 825 1625 
L 2419 1625 
L 2419 4116 
z
M 2253 4666 
L 3047 4666 
L 3047 1625 
L 3713 1625 
L 3713 1100 
L 3047 1100 
L 3047 0 
L 2419 0 
L 2419 1100 
L 313 1100 
L 313 1709 
L 2253 4666 
z
" transform="scale(0.015625)"/>
      </defs>
      <use xlink:href="#DejaVuSans-34"/>
      <use xlink:href="#DejaVuSans-30" x="63.623047"/>
      <use xlink:href="#DejaVuSans-30" x="127.246094"/>
      <use xlink:href="#DejaVuSans-30" x="190.869141"/>
     </g>
    </g>
   </g>
   <g id="xtick_3">
    <g id="line2d_4">
     <path d="M 301.911763 557.143099 
L 297.351154 561.39297 
" style="fill: none; stroke: #000000; stroke-width: 0.8; stroke-linecap: square"/>
    </g>
    <g id="text_4">
     <!-- 6000 -->
     <g transform="translate(280.231414 582.327318)scale(0.1 -0.1)">
      <defs>
       <path id="DejaVuSans-36" d="M 2113 2584 
Q 1688 2584 1439 2293 
Q 1191 2003 1191 1497 
Q 1191 994 1439 701 
Q 1688 409 2113 409 
Q 2538 409 2786 701 
Q 3034 994 3034 1497 
Q 3034 2003 2786 2293 
Q 2538 2584 2113 2584 
z
M 3366 4563 
L 3366 3988 
Q 3128 4100 2886 4159 
Q 2644 4219 2406 4219 
Q 1781 4219 1451 3797 
Q 1122 3375 1075 2522 
Q 1259 2794 1537 2939 
Q 1816 3084 2150 3084 
Q 2853 3084 3261 2657 
Q 3669 2231 3669 1497 
Q 3669 778 3244 343 
Q 2819 -91 2113 -91 
Q 1303 -91 875 529 
Q 447 1150 447 2328 
Q 447 3434 972 4092 
Q 1497 4750 2381 4750 
Q 2619 4750 2861 4703 
Q 3103 4656 3366 4563 
z
" transform="scale(0.015625)"/>
      </defs>
      <use xlink:href="#DejaVuSans-36"/>
      <use xlink:href="#DejaVuSans-30" x="63.623047"/>
      <use xlink:href="#DejaVuSans-30" x="127.246094"/>
      <use xlink:href="#DejaVuSans-30" x="190.869141"/>
     </g>
    </g>
   </g>
   <g id="xtick_4">
    <g id="line2d_5">
     <path d="M 363.175068 577.131922 
L 358.703367 581.470322 
" style="fill: none; stroke: #000000; stroke-width: 0.8; stroke-linecap: square"/>
    </g>
    <g id="text_5">
     <!-- 8000 -->
     <g transform="translate(341.560273 602.550341)scale(0.1 -0.1)">
      <defs>
       <path id="DejaVuSans-38" d="M 2034 2216 
Q 1584 2216 1326 1975 
Q 1069 1734 1069 1313 
Q 1069 891 1326 650 
Q 1584 409 2034 409 
Q 2484 409 2743 651 
Q 3003 894 3003 1313 
Q 3003 1734 2745 1975 
Q 2488 2216 2034 2216 
z
M 1403 2484 
Q 997 2584 770 2862 
Q 544 3141 544 3541 
Q 544 4100 942 4425 
Q 1341 4750 2034 4750 
Q 2731 4750 3128 4425 
Q 3525 4100 3525 3541 
Q 3525 3141 3298 2862 
Q 3072 2584 2669 2484 
Q 3125 2378 3379 2068 
Q 3634 1759 3634 1313 
Q 3634 634 3220 271 
Q 2806 -91 2034 -91 
Q 1263 -91 848 271 
Q 434 634 434 1313 
Q 434 1759 690 2068 
Q 947 2378 1403 2484 
z
M 1172 3481 
Q 1172 3119 1398 2916 
Q 1625 2713 2034 2713 
Q 2441 2713 2670 2916 
Q 2900 3119 2900 3481 
Q 2900 3844 2670 4047 
Q 2441 4250 2034 4250 
Q 1625 4250 1398 4047 
Q 1172 3844 1172 3481 
z
" transform="scale(0.015625)"/>
      </defs>
      <use xlink:href="#DejaVuSans-38"/>
      <use xlink:href="#DejaVuSans-30" x="63.623047"/>
      <use xlink:href="#DejaVuSans-30" x="127.246094"/>
      <use xlink:href="#DejaVuSans-30" x="190.869141"/>
     </g>
    </g>
   </g>
   <g id="xtick_5">
    <g id="line2d_6">
     <path d="M 425.719837 597.538857 
L 421.341785 601.968583 
" style="fill: none; stroke: #000000; stroke-width: 0.8; stroke-linecap: square"/>
    </g>
    <g id="text_6">
     <!-- 10000 -->
     <g transform="translate(400.994069 623.197482)scale(0.1 -0.1)">
      <defs>
       <path id="DejaVuSans-31" d="M 794 531 
L 1825 531 
L 1825 4091 
L 703 3866 
L 703 4441 
L 1819 4666 
L 2450 4666 
L 2450 531 
L 3481 531 
L 3481 0 
L 794 0 
L 794 531 
z
" transform="scale(0.015625)"/>
      </defs>
      <use xlink:href="#DejaVuSans-31"/>
      <use xlink:href="#DejaVuSans-30" x="63.623047"/>
      <use xlink:href="#DejaVuSans-30" x="127.246094"/>
      <use xlink:href="#DejaVuSans-30" x="190.869141"/>
      <use xlink:href="#DejaVuSans-30" x="254.492188"/>
     </g>
    </g>
   </g>
  </g>
  <g id="axis3d_2">
   <g id="line2d_7">
    <path d="M 610.521668 436.030763 
L 445.08181 605.812756 
" style="fill: none; stroke: #000000; stroke-width: 0.8; stroke-linecap: square"/>
   </g>
   <g id="text_7">
    <!-- analysis scale -->
    <g transform="translate(536.207163 571.902736)rotate(-45.742112)scale(0.1 -0.1)">
     <defs>
      <path id="DejaVuSans-61" d="M 2194 1759 
Q 1497 1759 1228 1600 
Q 959 1441 959 1056 
Q 959 750 1161 570 
Q 1363 391 1709 391 
Q 2188 391 2477 730 
Q 2766 1069 2766 1631 
L 2766 1759 
L 2194 1759 
z
M 3341 1997 
L 3341 0 
L 2766 0 
L 2766 531 
Q 2569 213 2275 61 
Q 1981 -91 1556 -91 
Q 1019 -91 701 211 
Q 384 513 384 1019 
Q 384 1609 779 1909 
Q 1175 2209 1959 2209 
L 2766 2209 
L 2766 2266 
Q 2766 2663 2505 2880 
Q 2244 3097 1772 3097 
Q 1472 3097 1187 3025 
Q 903 2953 641 2809 
L 641 3341 
Q 956 3463 1253 3523 
Q 1550 3584 1831 3584 
Q 2591 3584 2966 3190 
Q 3341 2797 3341 1997 
z
" transform="scale(0.015625)"/>
      <path id="DejaVuSans-6c" d="M 603 4863 
L 1178 4863 
L 1178 0 
L 603 0 
L 603 4863 
z
" transform="scale(0.015625)"/>
      <path id="DejaVuSans-79" d="M 2059 -325 
Q 1816 -950 1584 -1140 
Q 1353 -1331 966 -1331 
L 506 -1331 
L 506 -850 
L 844 -850 
Q 1081 -850 1212 -737 
Q 1344 -625 1503 -206 
L 1606 56 
L 191 3500 
L 800 3500 
L 1894 763 
L 2988 3500 
L 3597 3500 
L 2059 -325 
z
" transform="scale(0.015625)"/>
      <path id="DejaVuSans-63" d="M 3122 3366 
L 3122 2828 
Q 2878 2963 2633 3030 
Q 2388 3097 2138 3097 
Q 1578 3097 1268 2742 
Q 959 2388 959 1747 
Q 959 1106 1268 751 
Q 1578 397 2138 397 
Q 2388 397 2633 464 
Q 2878 531 3122 666 
L 3122 134 
Q 2881 22 2623 -34 
Q 2366 -91 2075 -91 
Q 1284 -91 818 406 
Q 353 903 353 1747 
Q 353 2603 823 3093 
Q 1294 3584 2113 3584 
Q 2378 3584 2631 3529 
Q 2884 3475 3122 3366 
z
" transform="scale(0.015625)"/>
     </defs>
     <use xlink:href="#DejaVuSans-61"/>
     <use xlink:href="#DejaVuSans-6e" x="61.279297"/>
     <use xlink:href="#DejaVuSans-61" x="124.658203"/>
     <use xlink:href="#DejaVuSans-6c" x="185.9375"/>
     <use xlink:href="#DejaVuSans-79" x="213.720703"/>
     <use xlink:href="#DejaVuSans-73" x="272.900391"/>
     <use xlink:href="#DejaVuSans-69" x="325"/>
     <use xlink:href="#DejaVuSans-73" x="352.783203"/>
     <use xlink:href="#DejaVuSans-20" x="404.882812"/>
     <use xlink:href="#DejaVuSans-73" x="436.669922"/>
     <use xlink:href="#DejaVuSans-63" x="488.769531"/>
     <use xlink:href="#DejaVuSans-61" x="543.75"/>
     <use xlink:href="#DejaVuSans-6c" x="605.029297"/>
     <use xlink:href="#DejaVuSans-65" x="632.8125"/>
    </g>
   </g>
   <g id="Line3DCollection_2">
    <path d="M 135.621027 259.637432 
L 146.27685 493.527891 
L 456.528968 594.065156 
" style="fill: none; stroke: #b0b0b0; stroke-width: 0.8"/>
    <path d="M 161.164367 240.997066 
L 170.586252 473.151268 
L 478.566797 571.448922 
" style="fill: none; stroke: #b0b0b0; stroke-width: 0.8"/>
    <path d="M 186.131391 222.777269 
L 194.370919 453.214489 
L 500.103898 549.346558 
" style="fill: none; stroke: #b0b0b0; stroke-width: 0.8"/>
    <path d="M 210.541385 204.963967 
L 217.647659 433.703463 
L 521.157144 527.740748 
" style="fill: none; stroke: #b0b0b0; stroke-width: 0.8"/>
    <path d="M 234.412787 187.543705 
L 240.432571 414.604698 
L 541.742661 506.614944 
" style="fill: none; stroke: #b0b0b0; stroke-width: 0.8"/>
    <path d="M 257.763227 170.503618 
L 262.74108 395.905264 
L 561.875864 485.953325 
" style="fill: none; stroke: #b0b0b0; stroke-width: 0.8"/>
    <path d="M 280.609574 153.831394 
L 284.587973 377.592765 
L 581.571498 465.740759 
" style="fill: none; stroke: #b0b0b0; stroke-width: 0.8"/>
    <path d="M 302.967979 137.515249 
L 305.987432 359.655315 
L 600.843676 445.962763 
" style="fill: none; stroke: #b0b0b0; stroke-width: 0.8"/>
   </g>
   <g id="xtick_6">
    <g id="line2d_8">
     <path d="M 453.914464 593.217925 
L 461.764737 595.761808 
" style="fill: none; stroke: #000000; stroke-width: 0.8; stroke-linecap: square"/>
    </g>
    <g id="text_8">
     <!-- 0.025 -->
     <g transform="translate(455.09153 615.082707)scale(0.1 -0.1)">
      <defs>
       <path id="DejaVuSans-2e" d="M 684 794 
L 1344 794 
L 1344 0 
L 684 0 
L 684 794 
z
" transform="scale(0.015625)"/>
       <path id="DejaVuSans-35" d="M 691 4666 
L 3169 4666 
L 3169 4134 
L 1269 4134 
L 1269 2991 
Q 1406 3038 1543 3061 
Q 1681 3084 1819 3084 
Q 2600 3084 3056 2656 
Q 3513 2228 3513 1497 
Q 3513 744 3044 326 
Q 2575 -91 1722 -91 
Q 1428 -91 1123 -41 
Q 819 9 494 109 
L 494 744 
Q 775 591 1075 516 
Q 1375 441 1709 441 
Q 2250 441 2565 725 
Q 2881 1009 2881 1497 
Q 2881 1984 2565 2268 
Q 2250 2553 1709 2553 
Q 1456 2553 1204 2497 
Q 953 2441 691 2322 
L 691 4666 
z
" transform="scale(0.015625)"/>
      </defs>
      <use xlink:href="#DejaVuSans-30"/>
      <use xlink:href="#DejaVuSans-2e" x="63.623047"/>
      <use xlink:href="#DejaVuSans-30" x="95.410156"/>
      <use xlink:href="#DejaVuSans-32" x="159.033203"/>
      <use xlink:href="#DejaVuSans-35" x="222.65625"/>
     </g>
    </g>
   </g>
   <g id="xtick_7">
    <g id="line2d_9">
     <path d="M 475.972946 570.621047 
L 483.761129 573.106789 
" style="fill: none; stroke: #000000; stroke-width: 0.8; stroke-linecap: square"/>
    </g>
    <g id="text_9">
     <!-- 0.050 -->
     <g transform="translate(476.987608 592.305805)scale(0.1 -0.1)">
      <use xlink:href="#DejaVuSans-30"/>
      <use xlink:href="#DejaVuSans-2e" x="63.623047"/>
      <use xlink:href="#DejaVuSans-30" x="95.410156"/>
      <use xlink:href="#DejaVuSans-35" x="159.033203"/>
      <use xlink:href="#DejaVuSans-30" x="222.65625"/>
     </g>
    </g>
   </g>
   <g id="xtick_8">
    <g id="line2d_10">
     <path d="M 497.530442 548.537383 
L 505.257313 550.966954 
" style="fill: none; stroke: #000000; stroke-width: 0.8; stroke-linecap: square"/>
    </g>
    <g id="text_10">
     <!-- 0.075 -->
     <g transform="translate(498.386039 570.046568)scale(0.1 -0.1)">
      <defs>
       <path id="DejaVuSans-37" d="M 525 4666 
L 3525 4666 
L 3525 4397 
L 1831 0 
L 1172 0 
L 2766 4134 
L 525 4134 
L 525 4666 
z
" transform="scale(0.015625)"/>
      </defs>
      <use xlink:href="#DejaVuSans-30"/>
      <use xlink:href="#DejaVuSans-2e" x="63.623047"/>
      <use xlink:href="#DejaVuSans-30" x="95.410156"/>
      <use xlink:href="#DejaVuSans-37" x="159.033203"/>
      <use xlink:href="#DejaVuSans-35" x="222.65625"/>
     </g>
    </g>
   </g>
   <g id="xtick_9">
    <g id="line2d_11">
     <path d="M 518.603826 526.949646 
L 526.27016 529.32493 
" style="fill: none; stroke: #000000; stroke-width: 0.8; stroke-linecap: square"/>
    </g>
    <g id="text_11">
     <!-- 0.100 -->
     <g transform="translate(519.303598 548.287548)scale(0.1 -0.1)">
      <use xlink:href="#DejaVuSans-30"/>
      <use xlink:href="#DejaVuSans-2e" x="63.623047"/>
      <use xlink:href="#DejaVuSans-31" x="95.410156"/>
      <use xlink:href="#DejaVuSans-30" x="159.033203"/>
      <use xlink:href="#DejaVuSans-30" x="222.65625"/>
     </g>
    </g>
   </g>
   <g id="xtick_10">
    <g id="line2d_12">
     <path d="M 539.209227 505.841316 
L 546.81579 508.164112 
" style="fill: none; stroke: #000000; stroke-width: 0.8; stroke-linecap: square"/>
    </g>
    <g id="text_12">
     <!-- 0.125 -->
     <g transform="translate(539.756314 527.01207)scale(0.1 -0.1)">
      <use xlink:href="#DejaVuSans-30"/>
      <use xlink:href="#DejaVuSans-2e" x="63.623047"/>
      <use xlink:href="#DejaVuSans-31" x="95.410156"/>
      <use xlink:href="#DejaVuSans-32" x="159.033203"/>
      <use xlink:href="#DejaVuSans-35" x="222.65625"/>
     </g>
    </g>
   </g>
   <g id="xtick_11">
    <g id="line2d_13">
     <path d="M 559.36206 485.196598 
L 566.909615 487.468627 
" style="fill: none; stroke: #000000; stroke-width: 0.8; stroke-linecap: square"/>
    </g>
    <g id="text_13">
     <!-- 0.150 -->
     <g transform="translate(559.759512 506.204194)scale(0.1 -0.1)">
      <use xlink:href="#DejaVuSans-30"/>
      <use xlink:href="#DejaVuSans-2e" x="63.623047"/>
      <use xlink:href="#DejaVuSans-31" x="95.410156"/>
      <use xlink:href="#DejaVuSans-35" x="159.033203"/>
      <use xlink:href="#DejaVuSans-30" x="222.65625"/>
     </g>
    </g>
   </g>
   <g id="xtick_12">
    <g id="line2d_14">
     <path d="M 579.077075 465.000386 
L 586.566376 467.223293 
" style="fill: none; stroke: #000000; stroke-width: 0.8; stroke-linecap: square"/>
    </g>
    <g id="text_14">
     <!-- 0.175 -->
     <g transform="translate(579.327851 485.84867)scale(0.1 -0.1)">
      <use xlink:href="#DejaVuSans-30"/>
      <use xlink:href="#DejaVuSans-2e" x="63.623047"/>
      <use xlink:href="#DejaVuSans-31" x="95.410156"/>
      <use xlink:href="#DejaVuSans-37" x="159.033203"/>
      <use xlink:href="#DejaVuSans-35" x="222.65625"/>
     </g>
    </g>
   </g>
   <g id="xtick_13">
    <g id="line2d_15">
     <path d="M 598.368385 445.23822 
L 605.800178 447.413582 
" style="fill: none; stroke: #000000; stroke-width: 0.8; stroke-linecap: square"/>
    </g>
    <g id="text_15">
     <!-- 0.200 -->
     <g transform="translate(598.475357 465.930907)scale(0.1 -0.1)">
      <use xlink:href="#DejaVuSans-30"/>
      <use xlink:href="#DejaVuSans-2e" x="63.623047"/>
      <use xlink:href="#DejaVuSans-32" x="95.410156"/>
      <use xlink:href="#DejaVuSans-30" x="159.033203"/>
      <use xlink:href="#DejaVuSans-30" x="222.65625"/>
     </g>
    </g>
   </g>
  </g>
  <g id="axis3d_3">
   <g id="line2d_16">
    <path d="M 610.521668 436.030763 
L 621.005628 207.087856 
" style="fill: none; stroke: #000000; stroke-width: 0.8; stroke-linecap: square"/>
   </g>
   <g id="text_16">
    <!-- -log(NFA) -->
    <g transform="translate(657.872958 341.649933)rotate(-87.378092)scale(0.1 -0.1)">
     <defs>
      <path id="DejaVuSans-2d" d="M 313 2009 
L 1997 2009 
L 1997 1497 
L 313 1497 
L 313 2009 
z
" transform="scale(0.015625)"/>
      <path id="DejaVuSans-67" d="M 2906 1791 
Q 2906 2416 2648 2759 
Q 2391 3103 1925 3103 
Q 1463 3103 1205 2759 
Q 947 2416 947 1791 
Q 947 1169 1205 825 
Q 1463 481 1925 481 
Q 2391 481 2648 825 
Q 2906 1169 2906 1791 
z
M 3481 434 
Q 3481 -459 3084 -895 
Q 2688 -1331 1869 -1331 
Q 1566 -1331 1297 -1286 
Q 1028 -1241 775 -1147 
L 775 -588 
Q 1028 -725 1275 -790 
Q 1522 -856 1778 -856 
Q 2344 -856 2625 -561 
Q 2906 -266 2906 331 
L 2906 616 
Q 2728 306 2450 153 
Q 2172 0 1784 0 
Q 1141 0 747 490 
Q 353 981 353 1791 
Q 353 2603 747 3093 
Q 1141 3584 1784 3584 
Q 2172 3584 2450 3431 
Q 2728 3278 2906 2969 
L 2906 3500 
L 3481 3500 
L 3481 434 
z
" transform="scale(0.015625)"/>
      <path id="DejaVuSans-28" d="M 1984 4856 
Q 1566 4138 1362 3434 
Q 1159 2731 1159 2009 
Q 1159 1288 1364 580 
Q 1569 -128 1984 -844 
L 1484 -844 
Q 1016 -109 783 600 
Q 550 1309 550 2009 
Q 550 2706 781 3412 
Q 1013 4119 1484 4856 
L 1984 4856 
z
" transform="scale(0.015625)"/>
      <path id="DejaVuSans-4e" d="M 628 4666 
L 1478 4666 
L 3547 763 
L 3547 4666 
L 4159 4666 
L 4159 0 
L 3309 0 
L 1241 3903 
L 1241 0 
L 628 0 
L 628 4666 
z
" transform="scale(0.015625)"/>
      <path id="DejaVuSans-46" d="M 628 4666 
L 3309 4666 
L 3309 4134 
L 1259 4134 
L 1259 2759 
L 3109 2759 
L 3109 2228 
L 1259 2228 
L 1259 0 
L 628 0 
L 628 4666 
z
" transform="scale(0.015625)"/>
      <path id="DejaVuSans-41" d="M 2188 4044 
L 1331 1722 
L 3047 1722 
L 2188 4044 
z
M 1831 4666 
L 2547 4666 
L 4325 0 
L 3669 0 
L 3244 1197 
L 1141 1197 
L 716 0 
L 50 0 
L 1831 4666 
z
" transform="scale(0.015625)"/>
      <path id="DejaVuSans-29" d="M 513 4856 
L 1013 4856 
Q 1481 4119 1714 3412 
Q 1947 2706 1947 2009 
Q 1947 1309 1714 600 
Q 1481 -109 1013 -844 
L 513 -844 
Q 928 -128 1133 580 
Q 1338 1288 1338 2009 
Q 1338 2731 1133 3434 
Q 928 4138 513 4856 
z
" transform="scale(0.015625)"/>
     </defs>
     <use xlink:href="#DejaVuSans-2d"/>
     <use xlink:href="#DejaVuSans-6c" x="36.083984"/>
     <use xlink:href="#DejaVuSans-6f" x="63.867188"/>
     <use xlink:href="#DejaVuSans-67" x="125.048828"/>
     <use xlink:href="#DejaVuSans-28" x="188.525391"/>
     <use xlink:href="#DejaVuSans-4e" x="227.539062"/>
     <use xlink:href="#DejaVuSans-46" x="302.34375"/>
     <use xlink:href="#DejaVuSans-41" x="350.738281"/>
     <use xlink:href="#DejaVuSans-29" x="419.146484"/>
    </g>
   </g>
   <g id="Line3DCollection_3">
    <path d="M 612.148481 400.505315 
L 316.346392 316.236762 
L 131.909093 467.722757 
" style="fill: none; stroke: #b0b0b0; stroke-width: 0.8"/>
    <path d="M 613.886579 362.549695 
L 315.923999 279.504378 
L 130.036306 428.833133 
" style="fill: none; stroke: #b0b0b0; stroke-width: 0.8"/>
    <path d="M 615.650507 324.030028 
L 315.495631 242.252413 
L 128.134619 389.343353 
" style="fill: none; stroke: #b0b0b0; stroke-width: 0.8"/>
    <path d="M 617.440843 284.933646 
L 315.061161 204.469763 
L 126.203355 349.239416 
" style="fill: none; stroke: #b0b0b0; stroke-width: 0.8"/>
    <path d="M 619.258187 245.2475 
L 314.620457 166.145008 
L 124.241821 308.506883 
" style="fill: none; stroke: #b0b0b0; stroke-width: 0.8"/>
   </g>
   <g id="xtick_14">
    <g id="line2d_17">
     <path d="M 609.66508 399.797839 
L 617.121232 401.921959 
" style="fill: none; stroke: #000000; stroke-width: 0.8; stroke-linecap: square"/>
    </g>
    <g id="text_17">
     <!-- −40 -->
     <g transform="translate(619.997777 405.528138)scale(0.1 -0.1)">
      <defs>
       <path id="DejaVuSans-2212" d="M 678 2272 
L 4684 2272 
L 4684 1741 
L 678 1741 
L 678 2272 
z
" transform="scale(0.015625)"/>
      </defs>
      <use xlink:href="#DejaVuSans-2212"/>
      <use xlink:href="#DejaVuSans-34" x="83.789062"/>
      <use xlink:href="#DejaVuSans-30" x="147.412109"/>
     </g>
    </g>
   </g>
   <g id="xtick_15">
    <g id="line2d_18">
     <path d="M 611.384171 361.852247 
L 618.897434 363.946273 
" style="fill: none; stroke: #000000; stroke-width: 0.8; stroke-linecap: square"/>
    </g>
    <g id="text_18">
     <!-- −30 -->
     <g transform="translate(621.868857 367.609045)scale(0.1 -0.1)">
      <defs>
       <path id="DejaVuSans-33" d="M 2597 2516 
Q 3050 2419 3304 2112 
Q 3559 1806 3559 1356 
Q 3559 666 3084 287 
Q 2609 -91 1734 -91 
Q 1441 -91 1130 -33 
Q 819 25 488 141 
L 488 750 
Q 750 597 1062 519 
Q 1375 441 1716 441 
Q 2309 441 2620 675 
Q 2931 909 2931 1356 
Q 2931 1769 2642 2001 
Q 2353 2234 1838 2234 
L 1294 2234 
L 1294 2753 
L 1863 2753 
Q 2328 2753 2575 2939 
Q 2822 3125 2822 3475 
Q 2822 3834 2567 4026 
Q 2313 4219 1838 4219 
Q 1578 4219 1281 4162 
Q 984 4106 628 3988 
L 628 4550 
Q 988 4650 1302 4700 
Q 1616 4750 1894 4750 
Q 2613 4750 3031 4423 
Q 3450 4097 3450 3541 
Q 3450 3153 3228 2886 
Q 3006 2619 2597 2516 
z
" transform="scale(0.015625)"/>
      </defs>
      <use xlink:href="#DejaVuSans-2212"/>
      <use xlink:href="#DejaVuSans-33" x="83.789062"/>
      <use xlink:href="#DejaVuSans-30" x="147.412109"/>
     </g>
    </g>
   </g>
   <g id="xtick_16">
    <g id="line2d_19">
     <path d="M 613.128798 323.342985 
L 620.700053 325.405784 
" style="fill: none; stroke: #000000; stroke-width: 0.8; stroke-linecap: square"/>
    </g>
    <g id="text_19">
     <!-- −20 -->
     <g transform="translate(623.767703 329.127276)scale(0.1 -0.1)">
      <use xlink:href="#DejaVuSans-2212"/>
      <use xlink:href="#DejaVuSans-32" x="83.789062"/>
      <use xlink:href="#DejaVuSans-30" x="147.412109"/>
     </g>
    </g>
   </g>
   <g id="xtick_17">
    <g id="line2d_20">
     <path d="M 614.899535 284.257399 
L 622.529683 286.287797 
" style="fill: none; stroke: #000000; stroke-width: 0.8; stroke-linecap: square"/>
    </g>
    <g id="text_20">
     <!-- −10 -->
     <g transform="translate(625.694935 290.070215)scale(0.1 -0.1)">
      <use xlink:href="#DejaVuSans-2212"/>
      <use xlink:href="#DejaVuSans-31" x="83.789062"/>
      <use xlink:href="#DejaVuSans-30" x="147.412109"/>
     </g>
    </g>
   </g>
   <g id="xtick_18">
    <g id="line2d_21">
     <path d="M 616.696973 244.582453 
L 624.386935 246.579235 
" style="fill: none; stroke: #000000; stroke-width: 0.8; stroke-linecap: square"/>
    </g>
    <g id="text_21">
     <!-- 0 -->
     <g transform="translate(635.02229 250.424863)scale(0.1 -0.1)">
      <use xlink:href="#DejaVuSans-30"/>
     </g>
    </g>
   </g>
  </g>
  <g id="axes_1">
   <g id="Poly3DCollection_1">
    <path d="M 299.870936 189.593482 
L 328.707523 207.403154 
L 350.644125 207.812903 
L 322.0628 182.325183 
z
" clip-path="url(#p5051b74d71)" style="fill: #ff0000; fill-opacity: 0.5; stroke: #000000; stroke-width: 0.25"/>
    <path d="M 328.707523 207.403154 
L 357.725056 228.407991 
L 379.301199 243.562383 
L 350.644125 207.812903 
z
" clip-path="url(#p5051b74d71)" style="fill: #ff0000; fill-opacity: 0.5; stroke: #000000; stroke-width: 0.25"/>
    <path d="M 357.725056 228.407991 
L 386.885276 246.935111 
L 408.060523 257.336658 
L 379.301199 243.562383 
z
" clip-path="url(#p5051b74d71)" style="fill: #ff0000; fill-opacity: 0.5; stroke: #000000; stroke-width: 0.25"/>
    <path d="M 386.885276 246.935111 
L 416.125713 277.137471 
L 436.742674 296.361495 
L 408.060523 257.336658 
z
" clip-path="url(#p5051b74d71)" style="fill: #ff0000; fill-opacity: 0.5; stroke: #000000; stroke-width: 0.25"/>
    <path d="M 416.125713 277.137471 
L 445.646305 289.064242 
L 465.642628 318.801877 
L 436.742674 296.361495 
z
" clip-path="url(#p5051b74d71)" style="fill: #ff0000; fill-opacity: 0.5; stroke: #000000; stroke-width: 0.25"/>
    <path d="M 445.646305 289.064242 
L 475.345188 304.744255 
L 494.475945 349.511985 
L 465.642628 318.801877 
z
" clip-path="url(#p5051b74d71)" style="fill: #ff0000; fill-opacity: 0.5; stroke: #000000; stroke-width: 0.25"/>
    <path d="M 475.345188 304.744255 
L 505.213116 322.109626 
L 523.636312 369.729271 
L 494.475945 349.511985 
z
" clip-path="url(#p5051b74d71)" style="fill: #ff0000; fill-opacity: 0.5; stroke: #000000; stroke-width: 0.25"/>
    <path d="M 277.170299 199.988277 
L 306.238632 214.11739 
L 328.707523 207.403154 
L 299.870936 189.593482 
z
" clip-path="url(#p5051b74d71)" style="fill: #0000ff; fill-opacity: 0.5; stroke: #000000; stroke-width: 0.25"/>
    <path d="M 505.213116 322.109626 
L 535.279468 339.362112 
L 552.759412 395.448227 
L 523.636312 369.729271 
z
" clip-path="url(#p5051b74d71)" style="fill: #ff0000; fill-opacity: 0.5; stroke: #000000; stroke-width: 0.25"/>
    <path d="M 535.279468 339.362112 
L 565.07976 369.414499 
L 581.38433 435.822422 
L 552.759412 395.448227 
z
" clip-path="url(#p5051b74d71)" style="fill: #ff0000; fill-opacity: 0.5; stroke: #000000; stroke-width: 0.25"/>
    <path d="M 306.238632 214.11739 
L 335.504087 225.800401 
L 357.725056 228.407991 
L 328.707523 207.403154 
z
" clip-path="url(#p5051b74d71)" style="fill: #ff0000; fill-opacity: 0.5; stroke: #000000; stroke-width: 0.25"/>
    <path d="M 335.504087 225.800401 
L 365.032328 244.667496 
L 386.885276 246.935111 
L 357.725056 228.407991 
z
" clip-path="url(#p5051b74d71)" style="fill: #ff0000; fill-opacity: 0.5; stroke: #000000; stroke-width: 0.25"/>
    <path d="M 365.032328 244.667496 
L 394.742067 260.615241 
L 416.125713 277.137471 
L 386.885276 246.935111 
z
" clip-path="url(#p5051b74d71)" style="fill: #ff0000; fill-opacity: 0.5; stroke: #000000; stroke-width: 0.25"/>
    <path d="M 394.742067 260.615241 
L 424.720144 269.960141 
L 445.646305 289.064242 
L 416.125713 277.137471 
z
" clip-path="url(#p5051b74d71)" style="fill: #ff0000; fill-opacity: 0.5; stroke: #000000; stroke-width: 0.25"/>
    <path d="M 253.97048 213.191402 
L 283.169505 220.31958 
L 306.238632 214.11739 
L 277.170299 199.988277 
z
" clip-path="url(#p5051b74d71)" style="fill: #0000ff; fill-opacity: 0.5; stroke: #000000; stroke-width: 0.25"/>
    <path d="M 424.720144 269.960141 
L 454.920245 283.745202 
L 475.345188 304.744255 
L 445.646305 289.064242 
z
" clip-path="url(#p5051b74d71)" style="fill: #ff0000; fill-opacity: 0.5; stroke: #000000; stroke-width: 0.25"/>
    <path d="M 283.169505 220.31958 
L 312.716866 231.500062 
L 335.504087 225.800401 
L 306.238632 214.11739 
z
" clip-path="url(#p5051b74d71)" style="fill: #0000ff; fill-opacity: 0.5; stroke: #000000; stroke-width: 0.25"/>
    <path d="M 454.920245 283.745202 
L 485.345217 298.35958 
L 505.213116 322.109626 
L 475.345188 304.744255 
z
" clip-path="url(#p5051b74d71)" style="fill: #ff0000; fill-opacity: 0.5; stroke: #000000; stroke-width: 0.25"/>
    <path d="M 312.716866 231.500062 
L 342.539245 244.98465 
L 365.032328 244.667496 
L 335.504087 225.800401 
z
" clip-path="url(#p5051b74d71)" style="fill: #0000ff; fill-opacity: 0.5; stroke: #000000; stroke-width: 0.25"/>
    <path d="M 485.345217 298.35958 
L 516.053124 311.254757 
L 535.279468 339.362112 
L 505.213116 322.109626 
z
" clip-path="url(#p5051b74d71)" style="fill: #ff0000; fill-opacity: 0.5; stroke: #000000; stroke-width: 0.25"/>
    <path d="M 342.539245 244.98465 
L 372.598273 254.881864 
L 394.742067 260.615241 
L 365.032328 244.667496 
z
" clip-path="url(#p5051b74d71)" style="fill: #ff0000; fill-opacity: 0.5; stroke: #000000; stroke-width: 0.25"/>
    <path d="M 230.233265 227.3196 
L 259.665769 235.030774 
L 283.169505 220.31958 
L 253.97048 213.191402 
z
" clip-path="url(#p5051b74d71)" style="fill: #0000ff; fill-opacity: 0.5; stroke: #000000; stroke-width: 0.25"/>
    <path d="M 516.053124 311.254757 
L 546.859275 329.180215 
L 565.07976 369.414499 
L 535.279468 339.362112 
z
" clip-path="url(#p5051b74d71)" style="fill: #ff0000; fill-opacity: 0.5; stroke: #000000; stroke-width: 0.25"/>
    <path d="M 372.598273 254.881864 
L 402.940525 265.186268 
L 424.720144 269.960141 
L 394.742067 260.615241 
z
" clip-path="url(#p5051b74d71)" style="fill: #ff0000; fill-opacity: 0.5; stroke: #000000; stroke-width: 0.25"/>
    <path d="M 259.665769 235.030774 
L 289.387307 242.041393 
L 312.716866 231.500062 
L 283.169505 220.31958 
z
" clip-path="url(#p5051b74d71)" style="fill: #0000ff; fill-opacity: 0.5; stroke: #000000; stroke-width: 0.25"/>
    <path d="M 402.940525 265.186268 
L 433.549507 277.292566 
L 454.920245 283.745202 
L 424.720144 269.960141 
z
" clip-path="url(#p5051b74d71)" style="fill: #ff0000; fill-opacity: 0.5; stroke: #000000; stroke-width: 0.25"/>
    <path d="M 289.387307 242.041393 
L 319.444186 250.991902 
L 342.539245 244.98465 
L 312.716866 231.500062 
z
" clip-path="url(#p5051b74d71)" style="fill: #0000ff; fill-opacity: 0.5; stroke: #000000; stroke-width: 0.25"/>
    <path d="M 205.990653 243.739719 
L 235.609642 250.442587 
L 259.665769 235.030774 
L 230.233265 227.3196 
z
" clip-path="url(#p5051b74d71)" style="fill: #0000ff; fill-opacity: 0.5; stroke: #000000; stroke-width: 0.25"/>
    <path d="M 433.549507 277.292566 
L 464.447346 288.317058 
L 485.345217 298.35958 
L 454.920245 283.745202 
z
" clip-path="url(#p5051b74d71)" style="fill: #ff0000; fill-opacity: 0.5; stroke: #000000; stroke-width: 0.25"/>
    <path d="M 319.444186 250.991902 
L 349.790952 258.226512 
L 372.598273 254.881864 
L 342.539245 244.98465 
z
" clip-path="url(#p5051b74d71)" style="fill: #0000ff; fill-opacity: 0.5; stroke: #000000; stroke-width: 0.25"/>
    <path d="M 235.609642 250.442587 
L 265.596946 259.485811 
L 289.387307 242.041393 
L 259.665769 235.030774 
z
" clip-path="url(#p5051b74d71)" style="fill: #0000ff; fill-opacity: 0.5; stroke: #000000; stroke-width: 0.25"/>
    <path d="M 464.447346 288.317058 
L 495.667082 297.901351 
L 516.053124 311.254757 
L 485.345217 298.35958 
z
" clip-path="url(#p5051b74d71)" style="fill: #ff0000; fill-opacity: 0.5; stroke: #000000; stroke-width: 0.25"/>
    <path d="M 349.790952 258.226512 
L 380.459896 268.538062 
L 402.940525 265.186268 
L 372.598273 254.881864 
z
" clip-path="url(#p5051b74d71)" style="fill: #0000ff; fill-opacity: 0.5; stroke: #000000; stroke-width: 0.25"/>
    <path d="M 495.667082 297.901351 
L 527.062178 312.255572 
L 546.859275 329.180215 
L 516.053124 311.254757 
z
" clip-path="url(#p5051b74d71)" style="fill: #ff0000; fill-opacity: 0.5; stroke: #000000; stroke-width: 0.25"/>
    <path d="M 265.596946 259.485811 
L 295.840617 265.73751 
L 319.444186 250.991902 
L 289.387307 242.041393 
z
" clip-path="url(#p5051b74d71)" style="fill: #0000ff; fill-opacity: 0.5; stroke: #000000; stroke-width: 0.25"/>
    <path d="M 181.245992 262.352709 
L 211.005898 267.211665 
L 235.609642 250.442587 
L 205.990653 243.739719 
z
" clip-path="url(#p5051b74d71)" style="fill: #0000ff; fill-opacity: 0.5; stroke: #000000; stroke-width: 0.25"/>
    <path d="M 380.459896 268.538062 
L 411.424628 278.717829 
L 433.549507 277.292566 
L 402.940525 265.186268 
z
" clip-path="url(#p5051b74d71)" style="fill: #0000ff; fill-opacity: 0.5; stroke: #000000; stroke-width: 0.25"/>
    <path d="M 295.840617 265.73751 
L 326.435446 273.44265 
L 349.790952 258.226512 
L 319.444186 250.991902 
z
" clip-path="url(#p5051b74d71)" style="fill: #0000ff; fill-opacity: 0.5; stroke: #000000; stroke-width: 0.25"/>
    <path d="M 411.424628 278.717829 
L 442.672539 290.434164 
L 464.447346 288.317058 
L 433.549507 277.292566 
z
" clip-path="url(#p5051b74d71)" style="fill: #0000ff; fill-opacity: 0.5; stroke: #000000; stroke-width: 0.25"/>
    <path d="M 211.005898 267.211665 
L 241.15984 273.875464 
L 265.596946 259.485811 
L 235.609642 250.442587 
z
" clip-path="url(#p5051b74d71)" style="fill: #0000ff; fill-opacity: 0.5; stroke: #000000; stroke-width: 0.25"/>
    <path d="M 326.435446 273.44265 
L 357.354898 280.423967 
L 380.459896 268.538062 
L 349.790952 258.226512 
z
" clip-path="url(#p5051b74d71)" style="fill: #0000ff; fill-opacity: 0.5; stroke: #000000; stroke-width: 0.25"/>
    <path d="M 442.672539 290.434164 
L 474.274679 298.714157 
L 495.667082 297.901351 
L 464.447346 288.317058 
z
" clip-path="url(#p5051b74d71)" style="fill: #0000ff; fill-opacity: 0.5; stroke: #000000; stroke-width: 0.25"/>
    <path d="M 241.15984 273.875464 
L 271.674464 281.875572 
L 295.840617 265.73751 
L 265.596946 259.485811 
z
" clip-path="url(#p5051b74d71)" style="fill: #0000ff; fill-opacity: 0.5; stroke: #000000; stroke-width: 0.25"/>
    <path d="M 155.824394 278.841309 
L 185.841864 285.185401 
L 211.005898 267.211665 
L 181.245992 262.352709 
z
" clip-path="url(#p5051b74d71)" style="fill: #0000ff; fill-opacity: 0.5; stroke: #000000; stroke-width: 0.25"/>
    <path d="M 357.354898 280.423967 
L 388.605372 292.433196 
L 411.424628 278.717829 
L 380.459896 268.538062 
z
" clip-path="url(#p5051b74d71)" style="fill: #0000ff; fill-opacity: 0.5; stroke: #000000; stroke-width: 0.25"/>
    <path d="M 474.274679 298.714157 
L 506.233279 306.261722 
L 527.062178 312.255572 
L 495.667082 297.901351 
z
" clip-path="url(#p5051b74d71)" style="fill: #0000ff; fill-opacity: 0.5; stroke: #000000; stroke-width: 0.25"/>
    <path d="M 271.674464 281.875572 
L 302.514105 289.848951 
L 326.435446 273.44265 
L 295.840617 265.73751 
z
" clip-path="url(#p5051b74d71)" style="fill: #0000ff; fill-opacity: 0.5; stroke: #000000; stroke-width: 0.25"/>
    <path d="M 185.841864 285.185401 
L 216.207024 291.819291 
L 241.15984 273.875464 
L 211.005898 267.211665 
z
" clip-path="url(#p5051b74d71)" style="fill: #0000ff; fill-opacity: 0.5; stroke: #000000; stroke-width: 0.25"/>
    <path d="M 388.605372 292.433196 
L 420.186537 299.458195 
L 442.672539 290.434164 
L 411.424628 278.717829 
z
" clip-path="url(#p5051b74d71)" style="fill: #0000ff; fill-opacity: 0.5; stroke: #000000; stroke-width: 0.25"/>
    <path d="M 302.514105 289.848951 
L 333.692234 298.557988 
L 357.354898 280.423967 
L 326.435446 273.44265 
z
" clip-path="url(#p5051b74d71)" style="fill: #0000ff; fill-opacity: 0.5; stroke: #000000; stroke-width: 0.25"/>
    <path d="M 216.207024 291.819291 
L 246.95298 300.002199 
L 271.674464 281.875572 
L 241.15984 273.875464 
z
" clip-path="url(#p5051b74d71)" style="fill: #0000ff; fill-opacity: 0.5; stroke: #000000; stroke-width: 0.25"/>
    <path d="M 420.186537 299.458195 
L 452.107088 307.642072 
L 474.274679 298.714157 
L 442.672539 290.434164 
z
" clip-path="url(#p5051b74d71)" style="fill: #0000ff; fill-opacity: 0.5; stroke: #000000; stroke-width: 0.25"/>
    <path d="M 333.692234 298.557988 
L 365.198683 306.191196 
L 388.605372 292.433196 
L 357.354898 280.423967 
z
" clip-path="url(#p5051b74d71)" style="fill: #0000ff; fill-opacity: 0.5; stroke: #000000; stroke-width: 0.25"/>
    <path d="M 246.95298 300.002199 
L 278.033704 308.35933 
L 302.514105 289.848951 
L 271.674464 281.875572 
z
" clip-path="url(#p5051b74d71)" style="fill: #0000ff; fill-opacity: 0.5; stroke: #000000; stroke-width: 0.25"/>
    <path d="M 452.107088 307.642072 
L 484.313746 318.888624 
L 506.233279 306.261722 
L 474.274679 298.714157 
z
" clip-path="url(#p5051b74d71)" style="fill: #0000ff; fill-opacity: 0.5; stroke: #000000; stroke-width: 0.25"/>
    <path d="M 365.198683 306.191196 
L 397.051542 314.920135 
L 420.186537 299.458195 
L 388.605372 292.433196 
z
" clip-path="url(#p5051b74d71)" style="fill: #0000ff; fill-opacity: 0.5; stroke: #000000; stroke-width: 0.25"/>
    <path d="M 278.033704 308.35933 
L 309.443215 316.120708 
L 333.692234 298.557988 
L 302.514105 289.848951 
z
" clip-path="url(#p5051b74d71)" style="fill: #0000ff; fill-opacity: 0.5; stroke: #000000; stroke-width: 0.25"/>
    <path d="M 397.051542 314.920135 
L 429.241897 324.357914 
L 452.107088 307.642072 
L 420.186537 299.458195 
z
" clip-path="url(#p5051b74d71)" style="fill: #0000ff; fill-opacity: 0.5; stroke: #000000; stroke-width: 0.25"/>
    <path d="M 309.443215 316.120708 
L 341.221071 326.475864 
L 365.198683 306.191196 
L 333.692234 298.557988 
z
" clip-path="url(#p5051b74d71)" style="fill: #0000ff; fill-opacity: 0.5; stroke: #000000; stroke-width: 0.25"/>
    <path d="M 429.241897 324.357914 
L 461.811544 331.587805 
L 484.313746 318.888624 
L 452.107088 307.642072 
z
" clip-path="url(#p5051b74d71)" style="fill: #0000ff; fill-opacity: 0.5; stroke: #000000; stroke-width: 0.25"/>
    <path d="M 341.221071 326.475864 
L 373.323733 334.121732 
L 397.051542 314.920135 
L 365.198683 306.191196 
z
" clip-path="url(#p5051b74d71)" style="fill: #0000ff; fill-opacity: 0.5; stroke: #000000; stroke-width: 0.25"/>
    <path d="M 373.323733 334.121732 
L 405.795104 341.519255 
L 429.241897 324.357914 
L 397.051542 314.920135 
z
" clip-path="url(#p5051b74d71)" style="fill: #0000ff; fill-opacity: 0.5; stroke: #000000; stroke-width: 0.25"/>
    <path d="M 405.795104 341.519255 
L 438.622787 350.768234 
L 461.811544 331.587805 
L 429.241897 324.357914 
z
" clip-path="url(#p5051b74d71)" style="fill: #0000ff; fill-opacity: 0.5; stroke: #000000; stroke-width: 0.25"/>
   </g>
   <g id="text_22">
    <!-- NFA vs scales and npoints on 3D cluster -->
    <g transform="translate(249.058125 80.4)scale(0.12 -0.12)">
     <defs>
      <path id="DejaVuSans-76" d="M 191 3500 
L 800 3500 
L 1894 563 
L 2988 3500 
L 3597 3500 
L 2284 0 
L 1503 0 
L 191 3500 
z
" transform="scale(0.015625)"/>
      <path id="DejaVuSans-64" d="M 2906 2969 
L 2906 4863 
L 3481 4863 
L 3481 0 
L 2906 0 
L 2906 525 
Q 2725 213 2448 61 
Q 2172 -91 1784 -91 
Q 1150 -91 751 415 
Q 353 922 353 1747 
Q 353 2572 751 3078 
Q 1150 3584 1784 3584 
Q 2172 3584 2448 3432 
Q 2725 3281 2906 2969 
z
M 947 1747 
Q 947 1113 1208 752 
Q 1469 391 1925 391 
Q 2381 391 2643 752 
Q 2906 1113 2906 1747 
Q 2906 2381 2643 2742 
Q 2381 3103 1925 3103 
Q 1469 3103 1208 2742 
Q 947 2381 947 1747 
z
" transform="scale(0.015625)"/>
      <path id="DejaVuSans-44" d="M 1259 4147 
L 1259 519 
L 2022 519 
Q 2988 519 3436 956 
Q 3884 1394 3884 2338 
Q 3884 3275 3436 3711 
Q 2988 4147 2022 4147 
L 1259 4147 
z
M 628 4666 
L 1925 4666 
Q 3281 4666 3915 4102 
Q 4550 3538 4550 2338 
Q 4550 1131 3912 565 
Q 3275 0 1925 0 
L 628 0 
L 628 4666 
z
" transform="scale(0.015625)"/>
     </defs>
     <use xlink:href="#DejaVuSans-4e"/>
     <use xlink:href="#DejaVuSans-46" x="74.804688"/>
     <use xlink:href="#DejaVuSans-41" x="123.199219"/>
     <use xlink:href="#DejaVuSans-20" x="191.607422"/>
     <use xlink:href="#DejaVuSans-76" x="223.394531"/>
     <use xlink:href="#DejaVuSans-73" x="282.574219"/>
     <use xlink:href="#DejaVuSans-20" x="334.673828"/>
     <use xlink:href="#DejaVuSans-73" x="366.460938"/>
     <use xlink:href="#DejaVuSans-63" x="418.560547"/>
     <use xlink:href="#DejaVuSans-61" x="473.541016"/>
     <use xlink:href="#DejaVuSans-6c" x="534.820312"/>
     <use xlink:href="#DejaVuSans-65" x="562.603516"/>
     <use xlink:href="#DejaVuSans-73" x="624.126953"/>
     <use xlink:href="#DejaVuSans-20" x="676.226562"/>
     <use xlink:href="#DejaVuSans-61" x="708.013672"/>
     <use xlink:href="#DejaVuSans-6e" x="769.292969"/>
     <use xlink:href="#DejaVuSans-64" x="832.671875"/>
     <use xlink:href="#DejaVuSans-20" x="896.148438"/>
     <use xlink:href="#DejaVuSans-6e" x="927.935547"/>
     <use xlink:href="#DejaVuSans-70" x="991.314453"/>
     <use xlink:href="#DejaVuSans-6f" x="1054.791016"/>
     <use xlink:href="#DejaVuSans-69" x="1115.972656"/>
     <use xlink:href="#DejaVuSans-6e" x="1143.755859"/>
     <use xlink:href="#DejaVuSans-74" x="1207.134766"/>
     <use xlink:href="#DejaVuSans-73" x="1246.34375"/>
     <use xlink:href="#DejaVuSans-20" x="1298.443359"/>
     <use xlink:href="#DejaVuSans-6f" x="1330.230469"/>
     <use xlink:href="#DejaVuSans-6e" x="1391.412109"/>
     <use xlink:href="#DejaVuSans-20" x="1454.791016"/>
     <use xlink:href="#DejaVuSans-33" x="1486.578125"/>
     <use xlink:href="#DejaVuSans-44" x="1550.201172"/>
     <use xlink:href="#DejaVuSans-20" x="1627.203125"/>
     <use xlink:href="#DejaVuSans-63" x="1658.990234"/>
     <use xlink:href="#DejaVuSans-6c" x="1713.970703"/>
     <use xlink:href="#DejaVuSans-75" x="1741.753906"/>
     <use xlink:href="#DejaVuSans-73" x="1805.132812"/>
     <use xlink:href="#DejaVuSans-74" x="1857.232422"/>
     <use xlink:href="#DejaVuSans-65" x="1896.441406"/>
     <use xlink:href="#DejaVuSans-72" x="1957.964844"/>
    </g>
   </g>
  </g>
 </g>
 <defs>
  <clipPath id="p5051b74d71">
   <rect x="91.8" y="86.4" width="554.4" height="554.4"/>
  </clipPath>
 </defs>
</svg>
